<?xml version="1.0" standalone="no"?><svg xmlns:xlink="http://www.w3.org/1999/xlink" xmlns="http://www.w3.org/2000/svg" viewBox="0 0 1000 600.0050526741278" preserveAspectRatio="xMaxYMax slice"><g transform="scale(1.5789606649319152)"><rect x="0" y="0" width="633.3333333333334" height="380" fill="#000000"/><rect x="0" y="0" width="63.333333333333336" height="63.333333333333336" fill="#000000"/><rect x="0" y="0" width="31.67" height="31.67" fill="#052150"/><polygon points="0,0 31.67,0 0,31.67" fill="#041b42"/><rect x="31.67" y="0" width="31.67" height="31.67" fill="#03122b"/><polygon points="31.67,0 63.34,31.67 31.67,31.67" fill="#245faf"/><rect x="0" y="31.67" width="31.67" height="31.67" fill="#1d4c8d"/><polygon points="0,31.67 31.67,63.34 0,63.34" fill="#06255c"/><rect x="31.67" y="31.67" width="31.67" height="31.67" fill="#020917"/><polygon points="31.67,31.67 63.34,31.67 31.67,63.34" fill="#0a192f"/><rect x="63.33" y="0" width="63.33" height="63.33" fill="#09172a"/><polygon points="63.33,0 126.66,0 63.33,63.33" fill="#082f74"/><rect x="126.67" y="0" width="63.33" height="63.33" fill="#1b4681"/><polygon points="126.67,0 190,0 126.67,63.33" fill="#041635"/><rect x="190" y="0" width="63.33" height="63.33" fill="#000206"/><polygon points="253.32999999999998,0 253.32999999999998,63.33 190,63.33" fill="#0f2748"/><rect x="253.33333333333334" y="0" width="63.333333333333336" height="63.333333333333336" fill="#000000"/><rect x="253.33" y="0" width="31.67" height="31.67" fill="#071120"/><polygon points="253.33,0 285,0 285,31.67" fill="#000205"/><rect x="285" y="0" width="31.67" height="31.67" fill="#1d4c8b"/><polygon points="285,0 316.67,31.67 285,31.67" fill="#031028"/><rect x="253.33" y="31.67" width="31.67" height="31.67" fill="#051f4c"/><polygon points="285,31.67 285,63.34 253.33,63.34" fill="#041b41"/><rect x="285" y="31.67" width="31.67" height="31.67" fill="#06255c"/><polygon points="285,31.67 316.67,31.67 316.67,63.34" fill="#082f73"/><rect x="316.67" y="0" width="63.33" height="63.33" fill="#03080e"/><polygon points="316.67,0 380,63.33 316.67,63.33" fill="#082e72"/><rect x="380" y="0" width="63.333333333333336" height="63.333333333333336" fill="#000000"/><rect x="380" y="0" width="31.67" height="31.67" fill="#010915"/><polygon points="380,0 411.67,0 411.67,31.67" fill="#163a6b"/><rect x="411.67" y="0" width="31.67" height="31.67" fill="#000204"/><polygon points="411.67,0 443.34000000000003,31.67 411.67,31.67" fill="#051d48"/><rect x="380" y="31.67" width="31.67" height="31.67" fill="#072d6e"/><polygon points="380,31.67 411.67,63.34 380,63.34" fill="#020b1b"/><rect x="411.67" y="31.67" width="31.67" height="31.67" fill="#072b69"/><polygon points="443.34000000000003,31.67 443.34000000000003,63.34 411.67,63.34" fill="#072965"/><rect x="443.33333333333337" y="0" width="63.333333333333336" height="63.333333333333336" fill="#000000"/><rect x="443.33" y="0" width="31.67" height="31.67" fill="#1c4a88"/><polygon points="443.33,0 475,0 443.33,31.67" fill="#072d6f"/><rect x="475" y="0" width="31.67" height="31.67" fill="#062457"/><polygon points="506.67,0 506.67,31.67 475,31.67" fill="#082e71"/><rect x="443.33" y="31.67" width="31.67" height="31.67" fill="#010204"/><polygon points="443.33,31.67 475,31.67 475,63.34" fill="#082f73"/><rect x="475" y="31.67" width="31.67" height="31.67" fill="#153867"/><polygon points="506.67,31.67 506.67,63.34 475,63.34" fill="#2259a3"/><rect x="506.67" y="0" width="63.33" height="63.33" fill="#000102"/><polygon points="506.67,0 570,0 570,63.33" fill="#0a1a30"/><rect x="570" y="0" width="63.333333333333336" height="63.333333333333336" fill="#000000"/><rect x="570" y="0" width="31.67" height="31.67" fill="#031129"/><polygon points="570,0 601.67,31.67 570,31.67" fill="#072d6f"/><rect x="601.67" y="0" width="31.67" height="31.67" fill="#173d71"/><polygon points="601.67,0 633.3399999999999,0 633.3399999999999,31.67" fill="#06275f"/><rect x="570" y="31.67" width="31.67" height="31.67" fill="#000307"/><polygon points="570,31.67 601.67,63.34 570,63.34" fill="#112b4f"/><rect x="601.67" y="31.67" width="31.67" height="31.67" fill="#1f5297"/><polygon points="633.3399999999999,31.67 633.3399999999999,63.34 601.67,63.34" fill="#062760"/><rect x="0" y="63.33" width="63.33" height="63.33" fill="#051f4b"/><polygon points="0,63.33 63.33,63.33 0,126.66" fill="#235aa6"/><rect x="63.333333333333336" y="63.333333333333336" width="63.333333333333336" height="63.333333333333336" fill="#000000"/><rect x="63.33" y="63.33" width="31.67" height="31.67" fill="#173c6e"/><polygon points="95,63.33 95,95 63.33,95" fill="#020c1d"/><rect x="95" y="63.33" width="31.67" height="31.67" fill="#03112b"/><polygon points="126.67,63.33 126.67,95 95,95" fill="#052152"/><rect x="63.33" y="95" width="31.67" height="31.67" fill="#122e55"/><polygon points="63.33,95 95,95 95,126.67" fill="#062459"/><rect x="95" y="95" width="31.67" height="31.67" fill="#041a3f"/><polygon points="95,95 126.67,95 95,126.67" fill="#072862"/><rect x="126.66666666666667" y="63.333333333333336" width="63.333333333333336" height="63.333333333333336" fill="#000000"/><rect x="126.67" y="63.33" width="31.67" height="31.67" fill="#1f5296"/><polygon points="126.67,63.33 158.34,63.33 158.34,95" fill="#163968"/><rect x="158.33" y="63.33" width="31.67" height="31.67" fill="#235caa"/><polygon points="190,63.33 190,95 158.33,95" fill="#062760"/><rect x="126.67" y="95" width="31.67" height="31.67" fill="#2157a0"/><polygon points="126.67,95 158.34,126.67 126.67,126.67" fill="#245eac"/><rect x="158.33" y="95" width="31.67" height="31.67" fill="#062861"/><polygon points="190,95 190,126.67 158.33,126.67" fill="#031028"/><rect x="190" y="63.333333333333336" width="63.333333333333336" height="63.333333333333336" fill="#000000"/><rect x="190" y="63.33" width="31.67" height="31.67" fill="#04183a"/><polygon points="190,63.33 221.67000000000002,63.33 221.67000000000002,95" fill="#1a447d"/><rect x="221.67" y="63.33" width="31.67" height="31.67" fill="#020c1d"/><polygon points="221.67,63.33 253.33999999999997,63.33 253.33999999999997,95" fill="#1b4884"/><rect x="190" y="95" width="31.67" height="31.67" fill="#06255a"/><polygon points="190,95 221.67000000000002,95 190,126.67" fill="#13325b"/><rect x="221.67" y="95" width="31.67" height="31.67" fill="#09172a"/><polygon points="221.67,95 253.33999999999997,95 253.33999999999997,126.67" fill="#245dac"/><rect x="253.33" y="63.33" width="63.33" height="63.33" fill="#2561b2"/><polygon points="253.33,63.33 316.66,63.33 316.66,126.66" fill="#0b1c34"/><rect x="316.6666666666667" y="63.333333333333336" width="63.333333333333336" height="63.333333333333336" fill="#000000"/><rect x="316.67" y="63.33" width="31.67" height="31.67" fill="#031533"/><polygon points="348.34000000000003,63.33 348.34000000000003,95 316.67,95" fill="#1e4e90"/><rect x="348.33" y="63.33" width="31.67" height="31.67" fill="#062761"/><polygon points="348.33,63.33 380,63.33 380,95" fill="#051c44"/><rect x="316.67" y="95" width="31.67" height="31.67" fill="#052150"/><polygon points="316.67,95 348.34000000000003,126.67 316.67,126.67" fill="#010610"/><rect x="348.33" y="95" width="31.67" height="31.67" fill="#031430"/><polygon points="348.33,95 380,95 348.33,126.67" fill="#0e2442"/><rect x="380" y="63.333333333333336" width="63.333333333333336" height="63.333333333333336" fill="#000000"/><rect x="380" y="63.33" width="31.67" height="31.67" fill="#082f74"/><polygon points="380,63.33 411.67,63.33 411.67,95" fill="#041a3f"/><rect x="411.67" y="63.33" width="31.67" height="31.67" fill="#183d71"/><polygon points="411.67,63.33 443.34000000000003,95 411.67,95" fill="#04183b"/><rect x="380" y="95" width="31.67" height="31.67" fill="#000001"/><polygon points="411.67,95 411.67,126.67 380,126.67" fill="#0e2543"/><rect x="411.67" y="95" width="31.67" height="31.67" fill="#06101e"/><polygon points="443.34000000000003,95 443.34000000000003,126.67 411.67,126.67" fill="#09192d"/><rect x="443.33" y="63.33" width="63.33" height="63.33" fill="#000206"/><polygon points="506.65999999999997,63.33 506.65999999999997,126.66 443.33,126.66" fill="#010711"/><rect x="506.67" y="63.33" width="63.33" height="63.33" fill="#040a12"/><polygon points="506.67,63.33 570,63.33 506.67,126.66" fill="#062457"/><rect x="570" y="63.333333333333336" width="63.333333333333336" height="63.333333333333336" fill="#000000"/><rect x="570" y="63.33" width="31.67" height="31.67" fill="#06255a"/><polygon points="601.67,63.33 601.67,95 570,95" fill="#06255b"/><rect x="601.67" y="63.33" width="31.67" height="31.67" fill="#052152"/><polygon points="601.67,63.33 633.3399999999999,63.33 601.67,95" fill="#09172b"/><rect x="570" y="95" width="31.67" height="31.67" fill="#050e19"/><polygon points="570,95 601.67,95 570,126.67" fill="#050e1a"/><rect x="601.67" y="95" width="31.67" height="31.67" fill="#0b1d35"/><polygon points="633.3399999999999,95 633.3399999999999,126.67 601.67,126.67" fill="#051e49"/><rect x="0" y="126.67" width="63.33" height="63.33" fill="#02060a"/><polygon points="0,126.67 63.33,126.67 0,190" fill="#000001"/><rect x="63.33" y="126.67" width="63.33" height="63.33" fill="#071424"/><polygon points="63.33,126.67 126.66,190 63.33,190" fill="#0b1e36"/><rect x="126.66666666666667" y="126.66666666666667" width="63.333333333333336" height="63.333333333333336" fill="#000000"/><rect x="126.67" y="126.67" width="31.67" height="31.67" fill="#143460"/><polygon points="158.34,126.67 158.34,158.34 126.67,158.34" fill="#062760"/><rect x="158.33" y="126.67" width="31.67" height="31.67" fill="#031534"/><polygon points="158.33,126.67 190,126.67 190,158.34" fill="#020a19"/><rect x="126.67" y="158.33" width="31.67" height="31.67" fill="#072a66"/><polygon points="126.67,158.33 158.34,158.33 126.67,190" fill="#020c1e"/><rect x="158.33" y="158.33" width="31.67" height="31.67" fill="#04193c"/><polygon points="190,158.33 190,190 158.33,190" fill="#020a18"/><rect x="190" y="126.67" width="63.33" height="63.33" fill="#143460"/><polygon points="253.32999999999998,126.67 253.32999999999998,190 190,190" fill="#072c6d"/><rect x="253.33" y="126.67" width="63.33" height="63.33" fill="#05204d"/><polygon points="253.33,126.67 316.66,126.67 253.33,190" fill="#1f5194"/><rect x="316.6666666666667" y="126.66666666666667" width="63.333333333333336" height="63.333333333333336" fill="#000000"/><rect x="316.67" y="126.67" width="31.67" height="31.67" fill="#0a192e"/><polygon points="316.67,126.67 348.34000000000003,158.34 316.67,158.34" fill="#051c45"/><rect x="348.33" y="126.67" width="31.67" height="31.67" fill="#2259a4"/><polygon points="348.33,126.67 380,158.34 348.33,158.34" fill="#05204e"/><rect x="316.67" y="158.33" width="31.67" height="31.67" fill="#21569e"/><polygon points="348.34000000000003,158.33 348.34000000000003,190 316.67,190" fill="#050e19"/><rect x="348.33" y="158.33" width="31.67" height="31.67" fill="#235aa5"/><polygon points="348.33,158.33 380,158.33 380,190" fill="#14335e"/><rect x="380" y="126.66666666666667" width="63.333333333333336" height="63.333333333333336" fill="#000000"/><rect x="380" y="126.67" width="31.67" height="31.67" fill="#122e55"/><polygon points="380,126.67 411.67,126.67 411.67,158.34" fill="#2259a4"/><rect x="411.67" y="126.67" width="31.67" height="31.67" fill="#1e4d8d"/><polygon points="411.67,126.67 443.34000000000003,126.67 411.67,158.34" fill="#041b43"/><rect x="380" y="158.33" width="31.67" height="31.67" fill="#040b15"/><polygon points="411.67,158.33 411.67,190 380,190" fill="#21569e"/><rect x="411.67" y="158.33" width="31.67" height="31.67" fill="#031028"/><polygon points="411.67,158.33 443.34000000000003,158.33 411.67,190" fill="#081526"/><rect x="443.33333333333337" y="126.66666666666667" width="63.333333333333336" height="63.333333333333336" fill="#000000"/><rect x="443.33" y="126.67" width="31.67" height="31.67" fill="#020e23"/><polygon points="475,126.67 475,158.34 443.33,158.34" fill="#163a6a"/><rect x="475" y="126.67" width="31.67" height="31.67" fill="#21569f"/><polygon points="506.67,126.67 506.67,158.34 475,158.34" fill="#1c4987"/><rect x="443.33" y="158.33" width="31.67" height="31.67" fill="#000101"/><polygon points="443.33,158.33 475,190 443.33,190" fill="#10294c"/><rect x="475" y="158.33" width="31.67" height="31.67" fill="#1b457f"/><polygon points="475,158.33 506.67,158.33 506.67,190" fill="#0c1f39"/><rect x="506.6666666666667" y="126.66666666666667" width="63.333333333333336" height="63.333333333333336" fill="#000000"/><rect x="506.67" y="126.67" width="31.67" height="31.67" fill="#0f2646"/><polygon points="506.67,126.67 538.34,126.67 538.34,158.34" fill="#102a4d"/><rect x="538.33" y="126.67" width="31.67" height="31.67" fill="#020d21"/><polygon points="538.33,126.67 570,126.67 570,158.34" fill="#0b1c33"/><rect x="506.67" y="158.33" width="31.67" height="31.67" fill="#06101d"/><polygon points="506.67,158.33 538.34,190 506.67,190" fill="#04193d"/><rect x="538.33" y="158.33" width="31.67" height="31.67" fill="#060f1b"/><polygon points="538.33,158.33 570,158.33 570,190" fill="#051c44"/><rect x="570" y="126.67" width="63.33" height="63.33" fill="#1a447d"/><polygon points="570,126.67 633.33,126.67 633.33,190" fill="#062253"/><rect x="0" y="190" width="63.333333333333336" height="63.333333333333336" fill="#000000"/><rect x="0" y="190" width="31.67" height="31.67" fill="#194177"/><polygon points="31.67,190 31.67,221.67000000000002 0,221.67000000000002" fill="#081628"/><rect x="31.67" y="190" width="31.67" height="31.67" fill="#205399"/><polygon points="31.67,190 63.34,190 31.67,221.67000000000002" fill="#04193d"/><rect x="0" y="221.67" width="31.67" height="31.67" fill="#03070d"/><polygon points="31.67,221.67 31.67,253.33999999999997 0,253.33999999999997" fill="#051f4c"/><rect x="31.67" y="221.67" width="31.67" height="31.67" fill="#081628"/><polygon points="63.34,221.67 63.34,253.33999999999997 31.67,253.33999999999997" fill="#010308"/><rect x="63.333333333333336" y="190" width="63.333333333333336" height="63.333333333333336" fill="#000000"/><rect x="63.33" y="190" width="31.67" height="31.67" fill="#081628"/><polygon points="95,190 95,221.67000000000002 63.33,221.67000000000002" fill="#05204e"/><rect x="95" y="190" width="31.67" height="31.67" fill="#020917"/><polygon points="126.67,190 126.67,221.67000000000002 95,221.67000000000002" fill="#06255b"/><rect x="63.33" y="221.67" width="31.67" height="31.67" fill="#1b4782"/><polygon points="63.33,221.67 95,253.33999999999997 63.33,253.33999999999997" fill="#010916"/><rect x="95" y="221.67" width="31.67" height="31.67" fill="#020f25"/><polygon points="95,221.67 126.67,221.67 95,253.33999999999997" fill="#072b6a"/><rect x="126.66666666666667" y="190" width="63.333333333333336" height="63.333333333333336" fill="#000000"/><rect x="126.67" y="190" width="31.67" height="31.67" fill="#020c1d"/><polygon points="126.67,190 158.34,221.67000000000002 126.67,221.67000000000002" fill="#083076"/><rect x="158.33" y="190" width="31.67" height="31.67" fill="#020c1e"/><polygon points="190,190 190,221.67000000000002 158.33,221.67000000000002" fill="#123057"/><rect x="126.67" y="221.67" width="31.67" height="31.67" fill="#06255b"/><polygon points="126.67,221.67 158.34,221.67 158.34,253.33999999999997" fill="#052151"/><rect x="158.33" y="221.67" width="31.67" height="31.67" fill="#062760"/><polygon points="158.33,221.67 190,253.33999999999997 158.33,253.33999999999997" fill="#173b6c"/><rect x="190" y="190" width="63.333333333333336" height="63.333333333333336" fill="#000000"/><rect x="190" y="190" width="31.67" height="31.67" fill="#183e71"/><polygon points="190,190 221.67000000000002,190 221.67000000000002,221.67000000000002" fill="#03112a"/><rect x="221.67" y="190" width="31.67" height="31.67" fill="#010711"/><polygon points="221.67,190 253.33999999999997,190 221.67,221.67000000000002" fill="#082f73"/><rect x="190" y="221.67" width="31.67" height="31.67" fill="#2561b2"/><polygon points="190,221.67 221.67000000000002,221.67 221.67000000000002,253.33999999999997" fill="#051c45"/><rect x="221.67" y="221.67" width="31.67" height="31.67" fill="#020917"/><polygon points="253.33999999999997,221.67 253.33999999999997,253.33999999999997 221.67,253.33999999999997" fill="#0a1a30"/><rect x="253.33333333333334" y="190" width="63.333333333333336" height="63.333333333333336" fill="#000000"/><rect x="253.33" y="190" width="31.67" height="31.67" fill="#1b4580"/><polygon points="253.33,190 285,190 285,221.67000000000002" fill="#0c1e38"/><rect x="285" y="190" width="31.67" height="31.67" fill="#020f25"/><polygon points="285,190 316.67,190 285,221.67000000000002" fill="#072c6c"/><rect x="253.33" y="221.67" width="31.67" height="31.67" fill="#1c4a87"/><polygon points="285,221.67 285,253.33999999999997 253.33,253.33999999999997" fill="#04193e"/><rect x="285" y="221.67" width="31.67" height="31.67" fill="#020e21"/><polygon points="285,221.67 316.67,253.33999999999997 285,253.33999999999997" fill="#21569f"/><rect x="316.6666666666667" y="190" width="63.333333333333336" height="63.333333333333336" fill="#000000"/><rect x="316.67" y="190" width="31.67" height="31.67" fill="#06255c"/><polygon points="316.67,190 348.34000000000003,190 316.67,221.67000000000002" fill="#040b15"/><rect x="348.33" y="190" width="31.67" height="31.67" fill="#041b42"/><polygon points="348.33,190 380,221.67000000000002 348.33,221.67000000000002" fill="#051e48"/><rect x="316.67" y="221.67" width="31.67" height="31.67" fill="#235ba7"/><polygon points="316.67,221.67 348.34000000000003,221.67 316.67,253.33999999999997" fill="#1b4680"/><rect x="348.33" y="221.67" width="31.67" height="31.67" fill="#020a18"/><polygon points="348.33,221.67 380,253.33999999999997 348.33,253.33999999999997" fill="#072964"/><rect x="380" y="190" width="63.33" height="63.33" fill="#031432"/><polygon points="443.33,190 443.33,253.32999999999998 380,253.32999999999998" fill="#14335d"/><rect x="443.33333333333337" y="190" width="63.333333333333336" height="63.333333333333336" fill="#000000"/><rect x="443.33" y="190" width="31.67" height="31.67" fill="#01060f"/><polygon points="443.33,190 475,190 475,221.67000000000002" fill="#235ba7"/><rect x="475" y="190" width="31.67" height="31.67" fill="#083075"/><polygon points="506.67,190 506.67,221.67000000000002 475,221.67000000000002" fill="#020e21"/><rect x="443.33" y="221.67" width="31.67" height="31.67" fill="#072964"/><polygon points="475,221.67 475,253.33999999999997 443.33,253.33999999999997" fill="#072a67"/><rect x="475" y="221.67" width="31.67" height="31.67" fill="#031532"/><polygon points="506.67,221.67 506.67,253.33999999999997 475,253.33999999999997" fill="#05204f"/><rect x="506.67" y="190" width="63.33" height="63.33" fill="#2662b4"/><polygon points="570,190 570,253.32999999999998 506.67,253.32999999999998" fill="#1a457e"/><rect x="570" y="190" width="63.333333333333336" height="63.333333333333336" fill="#000000"/><rect x="570" y="190" width="31.67" height="31.67" fill="#2560b0"/><polygon points="570,190 601.67,190 601.67,221.67000000000002" fill="#20549a"/><rect x="601.67" y="190" width="31.67" height="31.67" fill="#05204d"/><polygon points="601.67,190 633.3399999999999,190 633.3399999999999,221.67000000000002" fill="#020f24"/><rect x="570" y="221.67" width="31.67" height="31.67" fill="#041635"/><polygon points="570,221.67 601.67,221.67 601.67,253.33999999999997" fill="#14335e"/><rect x="601.67" y="221.67" width="31.67" height="31.67" fill="#020d20"/><polygon points="601.67,221.67 633.3399999999999,253.33999999999997 601.67,253.33999999999997" fill="#102a4d"/><rect x="0" y="253.33" width="63.33" height="63.33" fill="#000000"/><polygon points="0,253.33 63.33,253.33 63.33,316.66" fill="#20549b"/><rect x="63.333333333333336" y="253.33333333333334" width="63.333333333333336" height="63.333333333333336" fill="#000000"/><rect x="63.33" y="253.33" width="31.67" height="31.67" fill="#041739"/><polygon points="63.33,253.33 95,253.33 63.33,285" fill="#1e4d8e"/><rect x="95" y="253.33" width="31.67" height="31.67" fill="#04183b"/><polygon points="95,253.33 126.67,253.33 126.67,285" fill="#083076"/><rect x="63.33" y="285" width="31.67" height="31.67" fill="#051f4b"/><polygon points="95,285 95,316.67 63.33,316.67" fill="#06265d"/><rect x="95" y="285" width="31.67" height="31.67" fill="#20549a"/><polygon points="95,285 126.67,285 126.67,316.67" fill="#050c17"/><rect x="126.67" y="253.33" width="63.33" height="63.33" fill="#083075"/><polygon points="190,253.33 190,316.66 126.67,316.66" fill="#122f57"/><rect x="190" y="253.33" width="63.33" height="63.33" fill="#21559c"/><polygon points="253.32999999999998,253.33 253.32999999999998,316.66 190,316.66" fill="#062355"/><rect x="253.33333333333334" y="253.33333333333334" width="63.333333333333336" height="63.333333333333336" fill="#000000"/><rect x="253.33" y="253.33" width="31.67" height="31.67" fill="#082e71"/><polygon points="253.33,253.33 285,285 253.33,285" fill="#010814"/><rect x="285" y="253.33" width="31.67" height="31.67" fill="#02060b"/><polygon points="285,253.33 316.67,253.33 316.67,285" fill="#051f4b"/><rect x="253.33" y="285" width="31.67" height="31.67" fill="#06111f"/><polygon points="253.33,285 285,285 285,316.67" fill="#062760"/><rect x="285" y="285" width="31.67" height="31.67" fill="#14335f"/><polygon points="285,285 316.67,285 285,316.67" fill="#062458"/><rect x="316.6666666666667" y="253.33333333333334" width="63.333333333333336" height="63.333333333333336" fill="#000000"/><rect x="316.67" y="253.33" width="31.67" height="31.67" fill="#2562b3"/><polygon points="316.67,253.33 348.34000000000003,253.33 316.67,285" fill="#062861"/><rect x="348.33" y="253.33" width="31.67" height="31.67" fill="#072c6c"/><polygon points="348.33,253.33 380,253.33 380,285" fill="#2257a1"/><rect x="316.67" y="285" width="31.67" height="31.67" fill="#031534"/><polygon points="316.67,285 348.34000000000003,285 316.67,316.67" fill="#2560b1"/><rect x="348.33" y="285" width="31.67" height="31.67" fill="#255faf"/><polygon points="348.33,285 380,285 348.33,316.67" fill="#01040a"/><rect x="380" y="253.33" width="63.33" height="63.33" fill="#062760"/><polygon points="380,253.33 443.33,253.33 443.33,316.66" fill="#0d223e"/><rect x="443.33333333333337" y="253.33333333333334" width="63.333333333333336" height="63.333333333333336" fill="#000000"/><rect x="443.33" y="253.33" width="31.67" height="31.67" fill="#133159"/><polygon points="443.33,253.33 475,253.33 475,285" fill="#010409"/><rect x="475" y="253.33" width="31.67" height="31.67" fill="#020509"/><polygon points="506.67,253.33 506.67,285 475,285" fill="#072d6d"/><rect x="443.33" y="285" width="31.67" height="31.67" fill="#083075"/><polygon points="443.33,285 475,316.67 443.33,316.67" fill="#010610"/><rect x="475" y="285" width="31.67" height="31.67" fill="#20549b"/><polygon points="506.67,285 506.67,316.67 475,316.67" fill="#041636"/><rect x="506.67" y="253.33" width="63.33" height="63.33" fill="#04183b"/><polygon points="506.67,253.33 570,253.33 506.67,316.66" fill="#031027"/><rect x="570" y="253.33" width="63.33" height="63.33" fill="#072c6b"/><polygon points="570,253.33 633.33,316.66 570,316.66" fill="#1c4986"/><rect x="0" y="316.6666666666667" width="63.333333333333336" height="63.333333333333336" fill="#000000"/><rect x="0" y="316.67" width="31.67" height="31.67" fill="#041a40"/><polygon points="0,316.67 31.67,348.34000000000003 0,348.34000000000003" fill="#03112a"/><rect x="31.67" y="316.67" width="31.67" height="31.67" fill="#050c17"/><polygon points="31.67,316.67 63.34,348.34000000000003 31.67,348.34000000000003" fill="#010916"/><rect x="0" y="348.33" width="31.67" height="31.67" fill="#245dac"/><polygon points="0,348.33 31.67,348.33 31.67,380" fill="#0e2442"/><rect x="31.67" y="348.33" width="31.67" height="31.67" fill="#031533"/><polygon points="63.34,348.33 63.34,380 31.67,380" fill="#1b4783"/><rect x="63.333333333333336" y="316.6666666666667" width="63.333333333333336" height="63.333333333333336" fill="#000000"/><rect x="63.33" y="316.67" width="31.67" height="31.67" fill="#062760"/><polygon points="63.33,316.67 95,316.67 63.33,348.34000000000003" fill="#2259a3"/><rect x="95" y="316.67" width="31.67" height="31.67" fill="#041739"/><polygon points="95,316.67 126.67,316.67 95,348.34000000000003" fill="#13315a"/><rect x="63.33" y="348.33" width="31.67" height="31.67" fill="#031430"/><polygon points="63.33,348.33 95,348.33 63.33,380" fill="#21559c"/><rect x="95" y="348.33" width="31.67" height="31.67" fill="#071323"/><polygon points="95,348.33 126.67,348.33 95,380" fill="#04183b"/><rect x="126.66666666666667" y="316.6666666666667" width="63.333333333333336" height="63.333333333333336" fill="#000000"/><rect x="126.67" y="316.67" width="31.67" height="31.67" fill="#194178"/><polygon points="158.34,316.67 158.34,348.34000000000003 126.67,348.34000000000003" fill="#060e1b"/><rect x="158.33" y="316.67" width="31.67" height="31.67" fill="#173b6c"/><polygon points="158.33,316.67 190,348.34000000000003 158.33,348.34000000000003" fill="#020d1f"/><rect x="126.67" y="348.33" width="31.67" height="31.67" fill="#205398"/><polygon points="126.67,348.33 158.34,380 126.67,380" fill="#0e2645"/><rect x="158.33" y="348.33" width="31.67" height="31.67" fill="#072c6c"/><polygon points="190,348.33 190,380 158.33,380" fill="#052150"/><rect x="190" y="316.67" width="63.33" height="63.33" fill="#122e55"/><polygon points="190,316.67 253.32999999999998,380 190,380" fill="#041635"/><rect x="253.33333333333334" y="316.6666666666667" width="63.333333333333336" height="63.333333333333336" fill="#000000"/><rect x="253.33" y="316.67" width="31.67" height="31.67" fill="#010306"/><polygon points="253.33,316.67 285,348.34000000000003 253.33,348.34000000000003" fill="#245faf"/><rect x="285" y="316.67" width="31.67" height="31.67" fill="#0a1a2f"/><polygon points="285,316.67 316.67,316.67 316.67,348.34000000000003" fill="#081527"/><rect x="253.33" y="348.33" width="31.67" height="31.67" fill="#2561b2"/><polygon points="253.33,348.33 285,348.33 253.33,380" fill="#062356"/><rect x="285" y="348.33" width="31.67" height="31.67" fill="#051f4d"/><polygon points="285,348.33 316.67,348.33 285,380" fill="#06265c"/><rect x="316.67" y="316.67" width="63.33" height="63.33" fill="#0a1b31"/><polygon points="380,316.67 380,380 316.67,380" fill="#184075"/><rect x="380" y="316.67" width="63.33" height="63.33" fill="#051c44"/><polygon points="380,316.67 443.33,316.67 380,380" fill="#03080f"/><rect x="443.33" y="316.67" width="63.33" height="63.33" fill="#010409"/><polygon points="443.33,316.67 506.65999999999997,316.67 443.33,380" fill="#041b42"/><rect x="506.6666666666667" y="316.6666666666667" width="63.333333333333336" height="63.333333333333336" fill="#000000"/><rect x="506.67" y="316.67" width="31.67" height="31.67" fill="#1a447d"/><polygon points="506.67,316.67 538.34,316.67 538.34,348.34000000000003" fill="#1e4f91"/><rect x="538.33" y="316.67" width="31.67" height="31.67" fill="#05204f"/><polygon points="538.33,316.67 570,316.67 538.33,348.34000000000003" fill="#20559c"/><rect x="506.67" y="348.33" width="31.67" height="31.67" fill="#1b4681"/><polygon points="506.67,348.33 538.34,348.33 538.34,380" fill="#1c4986"/><rect x="538.33" y="348.33" width="31.67" height="31.67" fill="#041635"/><polygon points="538.33,348.33 570,348.33 570,380" fill="#2560b1"/><rect x="570" y="316.67" width="63.33" height="63.33" fill="#041637"/><polygon points="570,316.67 633.33,380 570,380" fill="#020917"/></g></svg>